Coordinates
version=1
nRows=19
nColumns=36
inDegrees=yes

Units are S.I. units (second, meters, Newtons, ...)
If the header above contains a line with 'inDegrees', this indicates whether rotational values are in degrees (yes) or radians (no).

endheader
time	pelvis_tilt	pelvis_list	pelvis_rotation	pelvis_tx	pelvis_ty	pelvis_tz	hip_flexion_r	hip_adduction_r	hip_rotation_r	knee_angle_r	knee_angle_r_beta	ankle_angle_r	subtalar_angle_r	mtp_angle_r	hip_flexion_l	hip_adduction_l	hip_rotation_l	knee_angle_l	knee_angle_l_beta	ankle_angle_l	subtalar_angle_l	mtp_angle_l	lumbar_extension	lumbar_bending	lumbar_rotation	arm_flex_r	arm_add_r	arm_rot_r	elbow_flex_r	pro_sup_r	arm_flex_l	arm_add_l	arm_rot_l	elbow_flex_l	pro_sup_l
      4.90000000	     -7.35726063	      0.24725515	      8.59368395	      0.85302535	      1.00840948	     -0.25258497	     15.32997404	     -4.59594372	    -10.15117584	     11.02762093	      0.19246829	    -10.78586732	     -9.70205361	     -7.49999987	     14.91119625	     -4.45930598	      1.45794705	     11.21731788	      0.19577913	     -1.59914188	     -9.35595848	     -7.49999987	    -15.21438529	     -1.60203872	     -0.27783107	     -7.15909711	    -17.55963347	     73.12367553	     16.35088867	     40.38541161	     -3.16651486	    -14.14861923	     34.99409909	     16.60190293	     49.40959997
      4.91666670	     -5.69677649	      0.14686560	      8.52155629	      0.84312509	      0.95862138	     -0.25543435	     16.65105298	     -4.81283645	     -9.13023339	     17.85704305	      0.31166420	     -7.45920894	    -14.17898726	     -7.49999987	     16.28186933	     -4.58166470	      0.90041118	     17.82887334	      0.31117254	      1.20996454	    -11.53431465	     -7.49999987	    -18.48849320	     -0.61383634	     -0.39738426	     -1.50742017	    -17.08735091	     72.35696804	     15.92799770	     39.41235922	     -1.55188322	    -12.14819190	     31.62818888	     17.50224595	     50.43495927
      4.93333330	     -4.11149914	      0.29302422	      8.71041785	      0.83500950	      0.92702240	     -0.25626051	     19.27985595	     -5.40675935	     -7.80154785	     26.91559717	      0.46976579	     -1.36630074	    -18.99244101	     -7.49999987	     18.69705390	     -4.48440856	      0.58785755	     25.86882354	      0.45149614	      5.99093182	    -14.34580789	     -7.49999987	    -22.63443673	      0.08123386	     -0.31490547	      5.57020823	    -16.87327485	     70.49244152	     16.29096924	     41.49930353	      1.68943496	    -10.83581929	     30.52121304	     18.60612908	     51.81437140
      4.95000000	     -3.63740104	      0.31702745	      8.69908013	      0.81660392	      0.88678710	     -0.25712600	     24.99840237	     -6.19899275	     -6.22453882	     38.24718349	      0.66753928	      7.32394732	    -22.26724324	     -7.49999987	     24.90360169	     -4.30556626	      0.80727114	     37.59339313	      0.65612849	     12.62041855	    -17.95863981	     -7.49999987	    -27.10549443	      0.68593339	     -0.31681503	     14.45285573	    -17.14306858	     68.54977629	     16.96857798	     43.21705480	      6.48583287	    -10.54475634	     29.98825879	     21.15481368	     53.26958308
      4.96666670	     -4.20733453	     -0.09249255	      8.65463408	      0.80578104	      0.86124429	     -0.25431715	     33.17694290	     -6.51678585	     -4.45445888	     51.15219466	      0.89277422	     15.80838875	    -23.63246401	     -7.49999987	     33.38230537	     -4.62059142	      1.39511087	     50.62085822	      0.88350065	     19.08187635	    -19.86968786	     -7.49999987	    -31.69440984	      1.35781499	     -0.69704474	     25.07674135	    -17.46427443	     66.14589865	     19.82457582	     45.39877019	     13.54873335	    -10.95030518	     29.63376812	     24.85058247	     54.77203178
      4.98333330	     -5.33771377	     -0.71575883	      8.92894772	      0.80029197	      0.84339005	     -0.25252487	     41.00707067	     -7.09482984	     -4.33418467	     62.14254075	      1.08459194	     23.29504613	    -21.17081610	     -7.49999987	     41.88703877	     -4.60556633	      3.07096031	     62.10723650	      1.08397577	     24.32480510	    -19.94941970	     -7.49999987	    -36.40298857	      1.81421237	      0.14853501	     33.67036130	    -17.63788047	     49.70685579	     23.69918125	     63.88587372	     24.07280964	    -11.29916769	     29.45974240	     27.23794797	     68.79252219
      5.00000000	     -6.66908714	     -0.96692989	      9.35832473	      0.79461459	      0.81932528	     -0.25563138	     47.85748932	     -8.14362271	     -4.12985224	     70.77801451	      1.23530939	     28.67470057	    -18.63961235	     -7.49999987	     49.04934916	     -4.09790963	      4.17600937	     70.78691088	      1.23546466	     28.17699702	    -18.97845360	     -7.49999987	    -40.26112786	      2.50175474	      0.21578015	     43.81864246	    -17.72794639	     46.32343651	     27.34666656	     64.46198231	     34.93394586	    -11.37453273	     30.38572532	     30.99381782	     69.73571411
      5.01666670	     -9.08200745	     -1.11399662	      9.78145430	      0.78034166	      0.79564407	     -0.26447299	     54.83874476	     -9.81353104	     -3.72671651	     76.51099321	      1.33536875	     30.81877239	    -16.42519369	     -7.49999987	     56.03876105	     -3.09524084	      4.72028668	     76.54252540	      1.33591909	     30.81117260	    -17.16148852	     -7.49999987	    -42.69434812	      2.74981073	      1.47308249	     51.12226080	    -19.53703924	     33.01931576	     36.07338429	     78.56763610	     46.10022031	    -11.07980102	     34.24023873	     33.91076125	     74.37336105
      5.03333330	    -11.74018989	     -1.32035271	     10.36992350	      0.76063907	      0.77902518	     -0.25706139	     61.37367220	    -11.32356615	     -3.59630660	     80.00950470	      1.39642929	     31.80052601	    -14.41712968	     -7.49999987	     62.68573119	     -2.61166324	      4.72116996	     80.28723452	      1.40127659	     31.03502450	    -15.43482157	     -7.49999987	    -44.98660276	      2.94559954	      1.26838000	     61.16474371	    -19.02403207	     31.41604994	     40.00190499	     77.90892213	     57.53404605	    -10.22769488	     33.77949124	     37.40104881	     74.01126651
      5.05000000	    -14.71295413	     -1.74295541	     10.81831059	      0.75335893	      0.76511688	     -0.25327309	     66.76567523	    -12.19957863	     -3.57725177	     81.52676849	      1.42291054	     32.24443242	    -12.68951695	     -7.49999987	     68.58972298	     -2.60092173	      4.60293557	     82.46623208	      1.43930727	     30.07022499	    -14.10867410	     -7.49999987	    -46.56971039	      2.70673231	      0.68911236	     69.27938297	    -18.13900180	     28.84554667	     43.85021263	     78.35922783	     67.37961881	    -10.23657638	     34.32997670	     39.54641472	     74.31262716
      5.06666670	    -17.72720286	     -2.18185470	     10.51962356	      0.74651734	      0.73538952	     -0.26994966	     72.61920943	    -13.22460361	     -2.94220086	     83.85512446	      1.46354802	     32.78714405	    -10.84383671	     -7.49999987	     74.92818042	     -2.51133917	      4.07689317	     85.77612307	      1.49707577	     29.98685744	    -13.18309808	     -7.49999987	    -45.91326665	      3.04480484	      0.34070859	     74.60008452	    -18.04222535	     26.26136474	     49.41262932	     77.86442066	     73.16602685	     -9.26032779	     31.60303748	     43.89975170	     73.48830672
      5.08333330	    -20.36586488	     -2.59716614	     10.21293852	      0.75505100	      0.72970039	     -0.27670659	     76.26892823	    -14.26081316	     -2.80892332	     84.95069614	      1.48266935	     33.20884190	     -8.98350395	     -7.49999987	     78.92151882	     -2.03697305	      3.73559890	     87.44138676	      1.52614010	     28.86458850	    -14.00471629	     -7.49999987	    -45.90100236	      3.57733903	      0.20044176	     77.30102901	    -17.56074645	     20.52679896	     56.90828355	     84.69335708	     74.96139607	     -7.63759933	     23.07754744	     51.97069962	     77.51255029
      5.10000000	    -22.66368459	     -2.71532211	      9.30415031	      0.74313190	      0.71280677	     -0.28282168	     80.39219610	    -15.24334271	     -2.31974481	     86.40235405	      1.50800556	     33.32154024	     -7.22088444	     -7.49999987	     82.94645113	     -1.57794692	      3.25239936	     89.60949381	      1.56398071	     29.02495019	    -14.42579234	     -7.49999987	    -45.47515629	      3.73138573	      0.25684729	     81.96407326	    -16.73392790	     19.76256407	     62.22358716	     84.59069391	     77.79071077	     -6.69797784	     19.68806418	     58.33238599	     77.29977162
      5.11666670	    -24.88774206	     -2.72818980	      8.08997214	      0.74071989	      0.70612090	     -0.27891845	     84.20840579	    -15.42632283	     -1.94938970	     87.51318809	      1.52739327	     32.97735559	     -5.38835636	     -7.49999987	     86.08030547	     -1.91278621	      2.85493100	     90.77167077	      1.58426452	     28.19621310	    -15.40014661	     -7.49999987	    -45.32761753	      3.46164438	      0.69015425	     85.58266132	    -15.13216218	     19.51963062	     68.53064045	     84.83599076	     80.10060118	     -6.75391286	     16.05053106	     65.80693586	     77.02817406
      5.13333330	    -27.01481588	     -2.39852449	      6.49448586	      0.73529653	      0.68888875	     -0.28414470	     88.22014260	    -15.35468761	     -1.36182372	     88.84349619	      1.55061153	     32.64669091	     -3.76809347	     -7.49999987	     89.07288573	     -2.46934582	      2.40420242	     91.99498195	      1.60561533	     28.72579985	    -15.36680878	     -7.49999987	    -44.12853618	      2.96161234	      1.16444894	     89.13257451	    -14.26436646	     21.09955922	     73.58217115	     85.65755077	     82.12320279	     -7.25264149	     14.68046516	     72.60387334	     77.18074899
      5.15000000	    -28.78309792	     -1.91470815	      4.95034286	      0.72471472	      0.67940703	     -0.27769977	     91.95549853	    -14.71436477	     -0.82878156	     89.83001652	      1.56782956	     31.76065823	     -2.76685614	     -7.49999987	     91.45500134	     -3.39981912	      2.16708565	     92.55720808	      1.61542803	     28.72479818	    -15.94645450	     -7.49999987	    -43.23387587	      1.86319426	      1.93066098	     93.89728007	    -12.82297398	     23.23475045	     77.11087684	     85.90610154	     84.97723845	     -8.06139840	     13.72760762	     77.87449547	     76.94751529
      5.16666670	    -29.96560737	     -1.69337641	      3.77374816	      0.70645866	      0.66933344	     -0.27041913	     95.24662936	    -13.82433506	     -0.74263532	     90.60059163	      1.58127863	     30.47214137	     -2.94071043	     -7.49999987	     94.24260084	     -4.29538730	      2.39330973	     93.41553659	      1.63040869	     27.41826532	    -17.18534992	     -7.49999987	    -42.83703067	      0.89924481	      2.77210243	     99.35051055	    -11.44338368	     26.06435986	     78.84758431	     86.08235429	     88.84346018	     -8.60696825	     14.60002293	     82.52840095	     76.69103353
      5.18333330	    -31.08831212	     -1.83062693	      3.42543991	      0.70552003	      0.66521567	     -0.26098929	     97.56880241	    -12.78468095	     -0.85888315	     91.03119910	      1.58879415	     29.28156068	     -4.06535278	     -7.49999987	     96.65454721	     -5.36036984	      2.89022129	     93.81545706	      1.63738862	     25.42664314	    -17.95735519	     -7.49999987	    -42.24099190	     -0.03482251	      2.88325260	    102.27701292	    -10.89160486	     27.29244311	     81.47306584	     86.15239171	     91.72569198	     -9.51759945	     15.96406055	     86.95881429	     76.52450254
      5.20000000	    -31.46851016	     -1.40464502	      3.15240823	      0.69830341	      0.66109875	     -0.27104183	     98.73147339	    -12.11588584	     -0.25619861	     90.84080039	      1.58547106	     28.18149622	     -4.90915887	     -7.49999987	     98.15477848	     -5.64546249	      2.35626045	     94.18489731	      1.64383656	     23.92117009	    -18.61390250	     -7.49999987	    -41.90736151	     -0.73022914	      2.74413124	    104.45425031	    -10.72441818	     27.96964630	     83.67934274	     86.40534700	     94.55791521	     -9.88120701	     15.98722459	     89.24447171	     76.39433968
